<svg id="Isotype" xmlns="http://www.w3.org/2000/svg" width="88.408" height="77.258" viewBox="0 0 88.408 77.258">
  <path id="Background_Leaf" data-name="Background Leaf" d="M859.517,401.862H884.3a47.314,47.314,0,0,0,47.314-47.314H904.438a49.421,49.421,0,0,0-46.962,34.026l-2.364,7.21A4.635,4.635,0,0,0,859.517,401.862Z" transform="translate(-849.523 -349.846)" fill="#fbbb21"/>
  <path id="Leaf" d="M928.575,346.793l-.231-5.128H891.407a50.9,50.9,0,0,0-32.1,11.418,13.319,13.319,0,0,0-13.172-11.418h-5.926v9.777h5.926a3.519,3.519,0,0,1,3.389,4.467l-4.932,16.783a50.766,50.766,0,0,0-3.34,11.487l-.888,5.28a8.723,8.723,0,0,0,8.608,10.128H877.76A50.382,50.382,0,0,0,914.4,384,51.032,51.032,0,0,0,928.575,346.793ZM907.352,377.22a40.689,40.689,0,0,1-29.592,12.591H850.217l.023-.14,50.309-28.083-47.3,16.317.541-1.84a41.024,41.024,0,0,1,37.619-24.623h27.343A41.293,41.293,0,0,1,907.352,377.22Z" transform="translate(-840.206 -341.665)" fill="#0074ff"/>
  <path id="Wheel_Left" data-name="Wheel Left" d="M862,507.914a8.291,8.291,0,1,0,8.29,8.291A8.291,8.291,0,0,0,862,507.914Z" transform="translate(-848.782 -447.237)" fill="#0074ff"/>
  <path id="Wheel_Right" data-name="Wheel Right" d="M968.4,507.914a8.291,8.291,0,1,0,8.29,8.291A8.291,8.291,0,0,0,968.4,507.914Z" transform="translate(-916.348 -447.237)" fill="#0074ff"/>
</svg>
