<svg xmlns="http://www.w3.org/2000/svg" width="236.453" height="144.775" viewBox="0 0 236.453 144.775">
  <g id="Logo" transform="translate(-630.696 -341.665)">
    <g id="Name" transform="translate(630.696 433.424)">
      <g id="S" transform="translate(0 2.116)">
        <path id="Path_2795" data-name="Path 2795" d="M650.8,615.8l-6.682-2.784q-3.454-1.5-3.453-3.732a3.244,3.244,0,0,1,1.225-2.478,5.123,5.123,0,0,1,3.508-1.086,23.724,23.724,0,0,1,10.024,2.729,9.623,9.623,0,0,0,2.9-6.4,26.685,26.685,0,0,0-12.391-3.174q-6.265,0-10.107,3.23a10.349,10.349,0,0,0-3.842,8.3q0,6.739,7.908,10.191l6.571,2.784q3.731,1.67,3.731,4.455a3.594,3.594,0,0,1-1.252,2.757,5.241,5.241,0,0,1-3.648,1.142q-5.178,0-11.249-3.676a9.332,9.332,0,0,0-2.228,2.813A9.221,9.221,0,0,0,630.7,634.4a25.835,25.835,0,0,0,6.766,3.063,25.383,25.383,0,0,0,7.212,1.114q7.016,0,10.775-3.285a10.847,10.847,0,0,0,3.76-8.576,10.08,10.08,0,0,0-2.2-6.377A15.428,15.428,0,0,0,650.8,615.8Z" transform="translate(-630.696 -598.876)" fill="#0074ff"/>
      </g>
      <g id="N" transform="translate(31.297 12.753)">
        <path id="Path_2796" data-name="Path 2796" d="M740.114,637.82a11.6,11.6,0,0,0-2-7.128,6.856,6.856,0,0,0-5.848-2.673q-3.842,0-7.908,3.453a4.176,4.176,0,0,0-4.4-3.341h-3.119l-.389.389v27.733a23.642,23.642,0,0,0,4.2.334,21.811,21.811,0,0,0,4.093-.334V637.6a6.441,6.441,0,0,1,4.566-2.172,2.072,2.072,0,0,1,1.948.947,6.171,6.171,0,0,1,.557,3.007v12.14a6.148,6.148,0,0,0,1.03,3.9q1.03,1.28,3.731,1.281a7.482,7.482,0,0,0,4.873-1.782,9.678,9.678,0,0,1-1.336-5.513Z" transform="translate(-716.447 -628.019)" fill="#0074ff"/>
      </g>
      <g id="A" transform="translate(57.859 12.586)">
        <path id="Path_2797" data-name="Path 2797" d="M812.67,648.388v-11.36q0-4.845-2.812-7.156a10.648,10.648,0,0,0-6.989-2.311,35.326,35.326,0,0,0-6.376.668,29.911,29.911,0,0,0-6.21,1.783,10.1,10.1,0,0,0,2.005,5.791,34.165,34.165,0,0,1,8.3-1.782q3.786,0,3.787,3.675v1.225q-2.338-.167-4.176-.167a12.348,12.348,0,0,0-7.824,2.45,8.552,8.552,0,0,0-3.147,7.184,8.719,8.719,0,0,0,2.2,5.848q2.2,2.562,6.516,2.561a11.281,11.281,0,0,0,7.88-3.341,7.007,7.007,0,0,0,5.792,2.952,7.458,7.458,0,0,0,1.586-1.893,7.237,7.237,0,0,0,1.03-2.395A4.267,4.267,0,0,1,812.67,648.388Zm-8.3.39a6.746,6.746,0,0,1-4.344,1.838,2.571,2.571,0,0,1-1.976-.807,2.793,2.793,0,0,1-.752-1.978q0-3.73,3.731-3.731,2.116,0,3.341.055Z" transform="translate(-789.225 -627.561)" fill="#0074ff"/>
      </g>
      <g id="P" transform="translate(84.701 12.419)">
        <path id="Path_2798" data-name="Path 2798" d="M877.722,627.1a10.5,10.5,0,0,0-7.712,3.175,4.94,4.94,0,0,0-4.622-2.729h-2.228l-.389.389V667.31l.389.39h3.23a4.609,4.609,0,0,0,3.509-1.142,5.65,5.65,0,0,0,1.058-3.87v-7.74a12.68,12.68,0,0,0,5.291,1.28,9.8,9.8,0,0,0,7.907-3.9q3.175-3.9,3.174-10.664T884.794,631A7.99,7.99,0,0,0,877.722,627.1ZM874.8,649.991a7.6,7.6,0,0,1-3.843-1.392V636.125a5.36,5.36,0,0,1,4.288-2.339,2.973,2.973,0,0,1,2.617,1.893,12.7,12.7,0,0,1,1,5.736Q878.864,649.991,874.8,649.991Z" transform="translate(-862.77 -627.103)" fill="#0074ff"/>
      </g>
      <g id="S-2" data-name="S" transform="translate(110.985 2.116)">
        <path id="Path_2799" data-name="Path 2799" d="M954.889,615.8l-6.683-2.784q-3.453-1.5-3.452-3.732a3.244,3.244,0,0,1,1.225-2.478,5.119,5.119,0,0,1,3.508-1.086,23.728,23.728,0,0,1,10.024,2.729,9.624,9.624,0,0,0,2.9-6.4,26.68,26.68,0,0,0-12.39-3.174q-6.265,0-10.108,3.23a10.35,10.35,0,0,0-3.842,8.3q0,6.739,7.907,10.191l6.572,2.784q3.729,1.67,3.731,4.455a3.6,3.6,0,0,1-1.253,2.757,5.238,5.238,0,0,1-3.647,1.142q-5.179,0-11.249-3.676a9.322,9.322,0,0,0-2.227,2.813,9.223,9.223,0,0,0-1.114,3.536,25.839,25.839,0,0,0,6.767,3.063,25.38,25.38,0,0,0,7.211,1.114q7.017,0,10.776-3.285a10.849,10.849,0,0,0,3.759-8.576,10.084,10.084,0,0,0-2.2-6.377A15.433,15.433,0,0,0,954.889,615.8Z" transform="translate(-934.785 -598.876)" fill="#0074ff"/>
      </g>
      <g id="H" transform="translate(143.396)">
        <path id="Path_2800" data-name="Path 2800" d="M1047.087,615.631a11.6,11.6,0,0,0-2-7.128,6.8,6.8,0,0,0-5.792-2.673,11.82,11.82,0,0,0-7.574,3.174V598.089a5.755,5.755,0,0,0-1.03-3.87,4.513,4.513,0,0,0-3.48-1.142h-3.231l-.389.39v40.6a23.9,23.9,0,0,0,4.149.334,21.114,21.114,0,0,0,3.982-.334V615.408a6.466,6.466,0,0,1,4.511-2.116,2.15,2.15,0,0,1,2,.919,6,6,0,0,1,.557,2.979v12.14a6.277,6.277,0,0,0,1,3.9q1,1.28,3.7,1.281a7.482,7.482,0,0,0,4.873-1.782,10,10,0,0,1-1.28-5.513Z" transform="translate(-1023.587 -593.077)" fill="#0074ff"/>
      </g>
      <g id="O" transform="translate(170.85 12.419)">
        <path id="Path_2801" data-name="Path 2801" d="M1111.562,627.1a11.932,11.932,0,0,0-8.743,3.23q-4.009,4.009-4.01,11.444t4.01,11.444a13.277,13.277,0,0,0,17.486,0q4.01-4.01,4.009-11.444t-4.009-11.444A11.934,11.934,0,0,0,1111.562,627.1Zm3.369,20.967a3.679,3.679,0,0,1-6.738,0,17.809,17.809,0,0,1-.863-6.265,18.06,18.06,0,0,1,.863-6.293,3.661,3.661,0,0,1,6.738,0,18.083,18.083,0,0,1,.864,6.293A17.831,17.831,0,0,1,1114.93,648.07Z" transform="translate(-1098.809 -627.103)" fill="#0074ff"/>
      </g>
      <g id="P-2" data-name="P" transform="translate(199.362 12.419)">
        <path id="Path_2802" data-name="Path 2802" d="M1191.881,627.1a10.5,10.5,0,0,0-7.714,3.175,4.939,4.939,0,0,0-4.622-2.729h-2.227l-.39.389V667.31l.39.39h3.23a4.608,4.608,0,0,0,3.509-1.142,5.651,5.651,0,0,0,1.058-3.87v-7.74a12.684,12.684,0,0,0,5.29,1.28,9.806,9.806,0,0,0,7.908-3.9q3.174-3.9,3.174-10.664T1198.953,631A7.989,7.989,0,0,0,1191.881,627.1Zm-2.924,22.888a7.6,7.6,0,0,1-3.842-1.392V636.125a5.36,5.36,0,0,1,4.288-2.339,2.974,2.974,0,0,1,2.618,1.893,12.7,12.7,0,0,1,1,5.736Q1193.023,649.991,1188.957,649.991Z" transform="translate(-1176.929 -627.103)" fill="#0074ff"/>
      </g>
      <g id="O-2" data-name="O" transform="translate(223.155 4.876)">
        <path id="Path_2803" data-name="Path 2803" d="M1253.5,608.368a6.805,6.805,0,1,0,1.918,4.742A6.409,6.409,0,0,0,1253.5,608.368Zm-1.5,8.066a4.487,4.487,0,0,1-6.453,0,4.929,4.929,0,0,1,0-6.661,4.459,4.459,0,0,1,6.453,0,4.928,4.928,0,0,1,0,6.661Z" transform="translate(-1242.122 -606.437)" fill="#0074ff"/>
      </g>
      <g id="R" transform="translate(227.287 8.298)">
        <path id="Path_2804" data-name="Path 2804" d="M1258.453,620.725l-.269-.562a1.87,1.87,0,0,0-.807-.9,1.6,1.6,0,0,0,.868-.538,1.719,1.719,0,0,0,.354-1.149,1.583,1.583,0,0,0-.6-1.246,2.831,2.831,0,0,0-1.87-.514l-2.615.074-.073.049v6.038a3.24,3.24,0,0,0,.9.1,3.517,3.517,0,0,0,.928-.1v-2.1h.2a.755.755,0,0,1,.684.44l.513,1.051a1.231,1.231,0,0,0,1.137.734,1.42,1.42,0,0,0,1.21-.66A1.674,1.674,0,0,1,1258.453,620.725Zm-2.592-2.273-.587.024v-1.271h.661q.708,0,.708.623T1255.861,618.452Z" transform="translate(-1253.441 -615.812)" fill="#0074ff"/>
      </g>
    </g>
    <g id="Isotype" transform="translate(707.162 341.665)">
      <path id="Background_Leaf" data-name="Background Leaf" d="M859.517,401.862H884.3a47.314,47.314,0,0,0,47.314-47.314H904.438a49.421,49.421,0,0,0-46.962,34.026l-2.364,7.21A4.635,4.635,0,0,0,859.517,401.862Z" transform="translate(-849.523 -349.846)" fill="#fbbb21"/>
      <path id="Leaf" d="M928.575,346.793l-.231-5.128H891.407a50.9,50.9,0,0,0-32.1,11.418,13.319,13.319,0,0,0-13.172-11.418h-5.926v9.777h5.926a3.519,3.519,0,0,1,3.389,4.467l-4.932,16.783a50.766,50.766,0,0,0-3.34,11.487l-.888,5.28a8.723,8.723,0,0,0,8.608,10.128H877.76A50.382,50.382,0,0,0,914.4,384,51.032,51.032,0,0,0,928.575,346.793ZM907.352,377.22a40.689,40.689,0,0,1-29.592,12.591H850.217l.023-.14,50.309-28.083-47.3,16.317.541-1.84a41.024,41.024,0,0,1,37.619-24.623h27.343A41.293,41.293,0,0,1,907.352,377.22Z" transform="translate(-840.206 -341.665)" fill="#0074ff"/>
      <path id="Wheel_Left" data-name="Wheel Left" d="M862,507.914a8.291,8.291,0,1,0,8.29,8.291A8.291,8.291,0,0,0,862,507.914Z" transform="translate(-848.782 -447.237)" fill="#0074ff"/>
      <path id="Wheel_Right" data-name="Wheel Right" d="M968.4,507.914a8.291,8.291,0,1,0,8.29,8.291A8.291,8.291,0,0,0,968.4,507.914Z" transform="translate(-916.348 -447.237)" fill="#0074ff"/>
    </g>
  </g>
</svg>
